<?xml version="1.0" encoding="UTF-8" standalone="no"?>
<!DOCTYPE svg PUBLIC "-//W3C//DTD SVG 1.1//EN"
 "http://www.w3.org/Graphics/SVG/1.1/DTD/svg11.dtd">
<!-- Generated by graphviz version 12.1.1 (20240910.0053)
 -->
<!-- Title: INFRA Pages: 1 -->
<svg width="362pt" height="188pt"
 viewBox="0.00 0.00 361.72 188.00" xmlns="http://www.w3.org/2000/svg" xmlns:xlink="http://www.w3.org/1999/xlink">
<g id="graph0" class="graph" transform="scale(1 1) rotate(0) translate(4 184)">
<title>INFRA</title>
<polygon fill="white" stroke="none" points="-4,4 -4,-184 357.72,-184 357.72,4 -4,4"/>
<!-- SecureS3Bucket -->
<g id="node1" class="node">
<title>SecureS3Bucket</title>
<path fill="#fff5cd" stroke="black" stroke-width="2" d="M132.7,-173.45C132.7,-177.07 102.96,-180 66.35,-180 29.74,-180 0,-177.07 0,-173.45 0,-173.45 0,-114.55 0,-114.55 0,-110.93 29.74,-108 66.35,-108 102.96,-108 132.7,-110.93 132.7,-114.55 132.7,-114.55 132.7,-173.45 132.7,-173.45"/>
<path fill="none" stroke="black" stroke-width="2" d="M132.7,-173.45C132.7,-169.84 102.96,-166.91 66.35,-166.91 29.74,-166.91 0,-169.84 0,-173.45"/>
<text text-anchor="middle" x="66.35" y="-148.2" font-family="Arial" font-size="14.00">SecureS3Bucket</text>
<text text-anchor="middle" x="66.35" y="-131.4" font-family="Arial" font-size="14.00">(AWS::S3::Bucket)</text>
</g>
<!-- SecureS3BucketKmsKey -->
<g id="node2" class="node">
<title>SecureS3BucketKmsKey</title>
<path fill="#e6e6e6" stroke="black" stroke-width="2" d="M233.55,-72C233.55,-72 85.15,-72 85.15,-72 79.15,-72 73.15,-66 73.15,-60 73.15,-60 73.15,-12 73.15,-12 73.15,-6 79.15,0 85.15,0 85.15,0 233.55,0 233.55,0 239.55,0 245.55,-6 245.55,-12 245.55,-12 245.55,-60 245.55,-60 245.55,-66 239.55,-72 233.55,-72"/>
<text text-anchor="middle" x="159.35" y="-40.2" font-family="Arial" font-size="14.00">SecureS3BucketKmsKey</text>
<text text-anchor="middle" x="159.35" y="-23.4" font-family="Arial" font-size="14.00">(AWS::KMS::Key)</text>
</g>
<!-- SecureS3Bucket&#45;&gt;SecureS3BucketKmsKey -->
<g id="edge1" class="edge">
<title>SecureS3Bucket&#45;&gt;SecureS3BucketKmsKey</title>
<path fill="none" stroke="black" d="M97.32,-107.7C104.92,-99.03 113.16,-89.65 121.07,-80.63"/>
<polygon fill="black" stroke="black" points="123.55,-83.11 127.52,-73.28 118.29,-78.49 123.55,-83.11"/>
</g>
<!-- SecureS3BucketKmsKeyAlias -->
<g id="node3" class="node">
<title>SecureS3BucketKmsKeyAlias</title>
<path fill="#e6e6e6" stroke="black" stroke-width="2" d="M341.72,-180C341.72,-180 162.97,-180 162.97,-180 156.97,-180 150.97,-174 150.97,-168 150.97,-168 150.97,-120 150.97,-120 150.97,-114 156.97,-108 162.97,-108 162.97,-108 341.72,-108 341.72,-108 347.72,-108 353.72,-114 353.72,-120 353.72,-120 353.72,-168 353.72,-168 353.72,-174 347.72,-180 341.72,-180"/>
<text text-anchor="middle" x="252.35" y="-148.2" font-family="Arial" font-size="14.00">SecureS3BucketKmsKeyAlias</text>
<text text-anchor="middle" x="252.35" y="-131.4" font-family="Arial" font-size="14.00">(AWS::KMS::Alias)</text>
</g>
<!-- SecureS3BucketKmsKeyAlias&#45;&gt;SecureS3BucketKmsKey -->
<g id="edge2" class="edge">
<title>SecureS3BucketKmsKeyAlias&#45;&gt;SecureS3BucketKmsKey</title>
<path fill="none" stroke="black" d="M221.38,-107.7C213.77,-99.03 205.54,-89.65 197.63,-80.63"/>
<polygon fill="black" stroke="black" points="200.4,-78.49 191.18,-73.28 195.14,-83.11 200.4,-78.49"/>
</g>
</g>
</svg>
